<?xml version="1.0" encoding="UTF-8" standalone="no"?>
<!-- Created with Inkscape (http://www.inkscape.org/) -->

<svg
   xmlns:dc="http://purl.org/dc/elements/1.1/"
   xmlns:cc="http://creativecommons.org/ns#"
   xmlns:rdf="http://www.w3.org/1999/02/22-rdf-syntax-ns#"
   xmlns:svg="http://www.w3.org/2000/svg"
   xmlns="http://www.w3.org/2000/svg"
   xmlns:sodipodi="http://sodipodi.sourceforge.net/DTD/sodipodi-0.dtd"
   xmlns:inkscape="http://www.inkscape.org/namespaces/inkscape"
   width="200"
   height="200"
   viewBox="0 0 200 199.99999"
   id="svg3616"
   version="1.1"
   inkscape:version="0.91 r13725"
   sodipodi:docname="drawing.svg">
  <defs
     id="defs3618" />
  <sodipodi:namedview
     id="base"
     pagecolor="#ffffff"
     bordercolor="#666666"
     borderopacity="1.0"
     inkscape:pageopacity="0.0"
     inkscape:pageshadow="2"
     inkscape:zoom="0.89571167"
     inkscape:cx="258.01659"
     inkscape:cy="62.618448"
     inkscape:document-units="px"
     inkscape:current-layer="layer1"
     showgrid="false"
     fit-margin-top="0"
     fit-margin-left="0"
     fit-margin-right="0"
     fit-margin-bottom="0"
     units="px"
     inkscape:window-width="969"
     inkscape:window-height="576"
     inkscape:window-x="55"
     inkscape:window-y="24"
     inkscape:window-maximized="1" />
  <metadata
     id="metadata3621">
    <rdf:RDF>
      <cc:Work
         rdf:about="">
        <dc:format>image/svg+xml</dc:format>
        <dc:type
           rdf:resource="http://purl.org/dc/dcmitype/StillImage" />
        <dc:title></dc:title>
      </cc:Work>
    </rdf:RDF>
  </metadata>
  <g
     inkscape:label="Capa 1"
     inkscape:groupmode="layer"
     id="layer1"
     transform="translate(-497.57236,-461.5561)">
    <g
       id="g4123"
       transform="matrix(1.093297,0,0,1.1181735,-53.685882,-76.156635)">
      <path
         style="fill:#e3e3e3"
         d="m 525.49544,649.63301 -2.92308,-2.92307 0,-15.15385 0,-15.15385 2.92308,-2.92307 2.92307,-2.92308 57.65385,0 57.65385,0 2.92307,2.92308 2.92308,2.92307 0,15.15385 0,15.15385 -2.92308,2.92307 -2.92307,2.92308 -57.65385,0 -57.65385,0 -2.92307,-2.92308 z m 138.06132,-1.9416 c -4.70814,-2.51956 -8.9844,-10.67537 -8.9844,-17.13532 0,-9.78973 7.51364,-19 15.5,-19 7.98636,0 15.5,9.21027 15.5,19 0,9.78973 -7.51364,19 -15.5,19 -1.66716,0 -4.59918,-0.8391 -6.5156,-1.86468 z M 569.0269,606.10154 c -1.34999,-1.35 -2.45454,-3.375 -2.45454,-4.5 0,-2.00622 -0.48091,-2.04545 -25.07692,-2.04545 l -25.07693,0 -2.92307,-2.92308 -2.92308,-2.92307 0,-51.15385 0,-51.15385 2.92308,-2.92307 2.92307,-2.92308 78.65385,0 78.65385,0 2.92307,2.92308 2.92308,2.92307 0,51.15385 0,51.15385 -2.92308,2.92307 -2.92307,2.92308 -27.57693,0 c -27.11453,0 -27.57692,0.0343 -27.57692,2.04545 0,1.125 -1.10455,3.15 -2.45455,4.5 -2.45088,2.45089 -2.48597,2.45455 -23.54545,2.45455 -21.05948,0 -21.09457,-0.004 -23.54546,-2.45455 z m 6.77824,-31.87091 c 6.59081,-3.22458 14.11788,-10.95237 16.9882,-17.4412 1.14374,-2.58562 2.29174,-7.6671 2.55112,-11.29219 1.24326,-17.37629 -9.86793,-32.38224 -27.09793,-36.59646 -12.37476,-3.02669 -23.8392,0.69048 -34.22015,11.09538 -7.44846,7.46565 -9.73809,12.09869 -10.26664,20.77448 -0.35641,5.85019 -0.0282,7.52369 2.54916,13 5.05421,10.73886 14.05883,19.29173 23.58763,22.40427 6.83709,2.2333 19.27821,1.29967 25.90861,-1.94428 z"
         id="path4137"
         inkscape:connector-curvature="0" />
      <path
         style="fill:#cecece"
         d="m 525.74667,649.24164 c -2.03949,-2.17094 -2.17431,-3.27624 -2.17431,-17.82569 0,-14.92074 0.0881,-15.59401 2.31445,-17.68555 l 2.31445,-2.17431 58.01124,0 58.01123,0 2.17432,2.31445 c 2.03949,2.17094 2.17431,3.27624 2.17431,17.82569 0,14.92074 -0.0881,15.59401 -2.31445,17.68555 l -2.31445,2.17431 -58.01124,0 -58.01123,0 -2.17432,-2.31445 z m 137.2122,-2.59157 c -4.26842,-2.6028 -7.38651,-9.39661 -7.38651,-16.09398 0,-10.46161 6.06909,-17.99252 14.5,-17.99252 5.419,0 9.79596,2.90671 12.36349,8.21053 4.28138,8.84414 1.68359,21.648 -5.25,25.87597 -3.98249,2.42844 -10.24449,2.42844 -14.22698,0 z m -93.64035,-40.84398 c -0.86009,-0.9625 -1.71734,-2.875 -1.90498,-4.25 l -0.34118,-2.5 -25.45428,-0.2676 c -24.50624,-0.25763 -25.53979,-0.34793 -27.75,-2.42431 l -2.29572,-2.15672 0,-51.65137 0,-51.65137 2.31445,-2.17432 2.31445,-2.17431 79.01124,0 79.01123,0 2.17432,2.31445 2.17431,2.31445 0,51.51124 0,51.51123 -2.29723,2.15814 c -2.22499,2.09027 -3.17636,2.16651 -30.25,2.42431 l -27.95277,0.26618 -0.34118,2.5 c -0.7964,5.83578 -1.485,6 -25.15882,6 -19.39476,0 -21.85551,-0.18519 -23.25384,-1.75 z m 52.03613,-22 c 8.28636,-10.53225 13.04781,-22.81706 13.85628,-35.75 1.05866,-16.93513 -4.37099,-32.46212 -15.65985,-44.78191 l -6.1559,-6.71809 -39.19557,0 -39.19557,0 -5.0628,5.25 c -10.05095,10.4226 -9.36888,7.3253 -9.36888,42.54436 l 0,30.98562 4.49793,6.11001 4.49793,6.11001 44.41804,0 44.41804,0 2.95035,-3.75 z"
         id="path4135"
         inkscape:connector-curvature="0" />
      <path
         style="fill:#a5a5a5"
         d="m 527.93644,650.3865 c -3.55259,-1.72019 -4.36408,-5.22166 -4.36408,-18.83041 0,-13.88621 0.80035,-17.13237 4.65733,-18.88973 3.42072,-1.55859 112.26462,-1.55859 115.68535,0 3.85697,1.75736 4.65732,5.00352 4.65732,18.88973 0,13.88621 -0.80035,17.13237 -4.65732,18.88973 -3.26951,1.48968 -112.89535,1.43361 -115.9786,-0.0593 z m 136.65585,-3.53256 c -11.94021,-6.16848 -11.75949,-26.7458 0.28675,-32.65098 10.3259,-5.06185 21.14608,5.73745 19.29316,19.25593 -1.55271,11.32831 -11.0301,17.812 -19.57991,13.39505 z m -94.56539,-41.7524 c -1.34999,-1.35 -2.45454,-3.375 -2.45454,-4.5 0,-2.00484 -0.48553,-2.04545 -24.45295,-2.04545 -25.93746,0 -28.49292,-0.39103 -30.43678,-4.65732 -1.55443,-3.41162 -1.55443,-99.27374 0,-102.68536 0.61065,-1.34023 2.20682,-2.9364 3.54706,-3.54705 3.43957,-1.56718 154.24577,-1.56718 157.68535,0 1.34022,0.61065 2.9364,2.20682 3.54705,3.54705 1.55443,3.41162 1.55443,99.27374 0,102.68536 -1.96669,4.31641 -4.37764,4.65732 -32.93678,4.65732 -26.48593,0 -26.95295,0.0354 -26.95295,2.04545 0,1.125 -1.10455,3.15 -2.45455,4.5 -2.44316,2.44317 -2.54769,2.45455 -22.54545,2.45455 -19.99775,0 -20.10229,-0.0114 -22.54546,-2.45455 z m 52.7854,-20.79545 c 4.14685,-4.4814 10.7496,-17.17171 12.87739,-24.75 0.69491,-2.475 1.25468,-9.45 1.24393,-15.5 -0.0164,-9.22701 -0.45524,-12.32402 -2.7227,-19.21451 -2.81356,-8.55003 -10.02803,-20.4574 -15.62298,-25.78549 l -3.15026,-3 -44.18266,0 c -24.30046,0 -45.37052,0.33362 -46.82236,0.74137 -1.45183,0.40775 -2.9733,1.53275 -3.38104,2.5 -1.03128,2.44644 -1.89248,66.13778 -1.03368,76.44753 0.38633,4.6379 1.06095,9.01266 1.49916,9.72168 1.5546,2.5154 8.06043,2.88585 52.45887,2.98706 l 44.90361,0.10236 3.93272,-4.25 z"
         id="path4133"
         inkscape:connector-curvature="0" />
      <path
         style="fill:#919191"
         d="m 526.22735,648.72735 c -1.39031,-1.53627 -1.65499,-4.31028 -1.65499,-17.34501 0,-13.76192 0.20677,-15.7034 1.82874,-17.17126 1.65743,-1.49995 7.26358,-1.65499 59.84501,-1.65499 54.93523,0 58.10417,0.0971 59.67126,1.82874 1.39031,1.53627 1.65499,4.31028 1.65499,17.34501 0,13.76192 -0.20677,15.7034 -1.82874,17.17126 -1.65743,1.49995 -7.26358,1.65499 -59.84501,1.65499 -54.93523,0 -58.10417,-0.0971 -59.67126,-1.82874 z m 90.33519,-11.65943 c 1.00286,-1.20837 0.91924,-1.60936 -0.44477,-2.13278 -1.97026,-0.75606 -4.07104,0.96145 -3.09926,2.53382 0.92279,1.49311 2.08078,1.36207 3.54403,-0.40104 z m 11.00982,-0.51183 c 0,-0.55 -0.70156,-1 -1.55902,-1 -0.85746,0 -1.2809,0.45 -0.94098,1 0.33992,0.55 1.04148,1 1.55902,1 0.51754,0 0.94098,-0.45 0.94098,-1 z m 34.94075,8.29669 c -4.0903,-3.44176 -5.94075,-7.89495 -5.94075,-14.29669 0,-10.01921 5.54357,-17 13.5,-17 7.95643,0 13.5,6.98079 13.5,17 0,10.01921 -5.54357,17 -13.5,17 -3.26454,0 -5.14631,-0.67295 -7.55925,-2.70331 z m -92.72982,-39.54669 c -0.56868,-0.6875 -1.18628,-2.6 -1.37245,-4.25 l -0.33848,-3 -25.94034,-0.26727 c -22.37644,-0.23055 -26.18897,-0.49227 -27.75,-1.90499 -1.70175,-1.54006 -1.80966,-4.71996 -1.80966,-53.32774 0,-48.80646 0.10202,-51.78235 1.82874,-53.34501 1.66918,-1.51059 8.72286,-1.65499 80.84501,-1.65499 75.27969,0 79.09454,0.0865 80.67126,1.82874 1.4949,1.65185 1.65499,6.8119 1.65499,53.34501 0,48.45603 -0.10759,51.61364 -1.81118,53.15537 -1.57329,1.42381 -5.54646,1.67402 -30.25,1.90499 l -28.43882,0.26589 -0.33849,3 c -0.61974,5.4928 -0.65139,5.5 -24.16151,5.5 -16.18598,0 -22.0198,-0.31999 -22.78907,-1.25 z m 61.71797,-17.41357 c 26.59125,-0.5306 33.53751,-0.9457 34.66325,-2.07143 2.09294,-2.09295 2.09318,-85.43681 2.5e-4,-87.52974 -1.59855,-1.59855 -46.58722,-2.73526 -108.25593,-2.73526 -33.00314,0 -34.41413,0.0777 -36.33647,2 -1.93726,1.93725 -2,3.33333 -2,44.5 0,41.16667 0.0627,42.56275 2,44.5 1.92858,1.92858 3.33333,2 39.33676,2 20.53521,0 52.30168,-0.29861 70.59214,-0.66357 z"
         id="path4131"
         inkscape:connector-curvature="0" />
      <path
         style="fill:#595959"
         d="m 527.02691,648.10154 c -2.37381,-2.3738 -2.45455,-2.91807 -2.45455,-16.54545 0,-13.62738 0.0807,-14.17165 2.45455,-16.54545 l 2.45454,-2.45455 56.59091,0 56.59091,0 2.45454,2.45455 c 2.37381,2.3738 2.45455,2.91807 2.45455,16.54545 0,13.62738 -0.0807,14.17165 -2.45455,16.54545 l -2.45454,2.45455 -56.59091,0 -56.59091,0 -2.45454,-2.45455 z m 22.29545,-3.79545 c -0.22917,-0.6875 -0.71667,-1.1375 -1.08333,-1 -0.36667,0.1375 -3.36667,0.25 -6.66667,0.25 -3.33333,0 -6,0.44444 -6,1 0,0.57255 3.02778,1 7.08333,1 5.22223,0 6.97386,-0.32843 6.66667,-1.25 z m 63.25,-0.80902 c 0,-0.58246 -0.45,-0.7809 -1,-0.44098 -0.55,0.33992 -1,0.81648 -1,1.05902 0,0.24254 0.45,0.44098 1,0.44098 0.55,0 1,-0.47656 1,-1.05902 z m -79,-2.38196 c 0,-1.59263 -1.81436,-3.07799 -2.69007,-2.20228 -0.82264,0.82264 0.46152,3.64326 1.65868,3.64326 0.56727,0 1.03139,-0.64844 1.03139,-1.44098 z m 47,-1.55902 c 0,-0.62366 -5.83333,-1 -15.5,-1 -9.66667,0 -15.5,0.37634 -15.5,1 0,0.62366 5.83333,1 15.5,1 9.66667,0 15.5,-0.37634 15.5,-1 z m 37.19762,-2.33519 c 2.53809,-1.84736 2.84648,-1.86594 5.21482,-0.31414 3.39691,2.22574 5.58756,2.08826 5.58756,-0.35067 0,-1.78019 -0.66667,-2 -6.06574,-2 -3.33616,0 -6.90594,-0.44966 -7.93285,-0.99925 -1.49137,-0.79815 -1.99481,-0.59691 -2.50165,1 -0.86088,2.71239 0.33591,6.2116 1.82224,5.32791 0.6479,-0.38521 2.39193,-1.58394 3.87562,-2.66385 z m -3.79762,-15.49814 c -0.055,-0.64167 -0.1675,-2.06667 -0.25,-3.16667 -0.0825,-1.1 -0.825,-2 -1.65,-2 -1.54895,0 -1.96881,2.61474 -0.87679,5.46048 0.68862,1.79453 2.93541,1.5568 2.77679,-0.29381 z m -80.4,-1.66667 c 0,-0.825 -0.40185,-1.5 -0.89301,-1.5 -0.49116,0 -1.15203,0.675 -1.46862,1.5 -0.35062,0.91371 -0.002,1.5 0.89301,1.5 0.80774,0 1.46862,-0.675 1.46862,-1.5 z m 130.60502,25.57832 c -5.01413,-3.30555 -7.10639,-7.74965 -7.09397,-15.06807 0.0127,-7.50417 2.13045,-11.99746 7.10698,-15.07932 5.87015,-3.63525 12.53832,-1.61134 16.70104,5.06907 1.65858,2.66172 2.18093,5.0568 2.18093,10 0,4.9432 -0.52235,7.33828 -2.18093,10 -4.14554,6.65285 -11.11401,8.77012 -16.71405,5.07832 z m -93.60502,-41.07832 c -1.1,-1.1 -2,-3.125 -2,-4.5 l 0,-2.5 -25.54546,0 -25.54545,0 -2.45455,-2.45455 -2.45454,-2.45454 0,-50.09091 0,-50.09091 2.45455,-2.45455 2.45454,-2.45454 77.59091,0 77.59091,0 2.45454,2.45454 2.45455,2.45455 0,50.09091 0,50.09091 -2.45455,2.45454 -2.45454,2.45455 -28.04546,0 -28.04545,0 0,2.5 c 0,1.375 -0.9,3.4 -2,4.5 -1.86667,1.86667 -3.33333,2 -22,2 -18.66667,0 -20.13333,-0.13333 -22,-2 z m 96.15794,-17.64294 c 1.73525,-1.57037 1.84206,-4.17144 1.84206,-44.85706 0,-40.66975 -0.10738,-43.2872 -1.84019,-44.85537 -1.67523,-1.51607 -8.21517,-1.68683 -72.95795,-1.90499 -67.10764,-0.22613 -71.21882,-0.139 -72.90981,1.54522 -1.65632,1.64968 -1.81335,4.95224 -2.07322,43.60293 -0.17894,26.61417 0.0884,42.79022 0.73546,44.49198 0.55914,1.47065 2.03566,3.12206 3.28116,3.66979 1.46956,0.64626 26.80647,0.8166 72.17249,0.48521 63.40553,-0.46317 70.07928,-0.66573 71.75,-2.17771 z"
         id="path4129"
         inkscape:connector-curvature="0" />
      <path
         style="fill:#333333"
         d="m 527.14379,647.98466 c -1.28755,-1.28754 -1.57143,-4.25541 -1.57143,-16.42857 0,-12.17316 0.28388,-15.14103 1.57143,-16.42857 1.39199,-1.39199 8.11145,-1.57143 58.84501,-1.57143 54.21573,0 57.36195,0.0976 58.92857,1.82874 2.06285,2.27942 2.1433,6.52111 0.15499,8.17126 -1.04151,0.86437 -1.5,3.16157 -1.5,7.51546 0,4.65134 0.38734,6.4192 1.5,6.84617 0.9839,0.37755 1.5,1.93809 1.5,4.53556 0,7.52867 3.62734,7.10281 -60.5,7.10281 -50.80952,0 -57.53653,-0.17939 -58.92857,-1.57143 z m 39.42857,-2.62516 c 8.00993,-0.19382 7.81278,-0.23733 -3.41945,-0.75455 -7.55862,-0.34805 -12.05691,-0.96432 -12.29519,-1.68445 -0.2675,-0.80842 4.75119,-1.26069 17.41944,-1.56979 9.78736,-0.23881 18.34946,-0.24532 19.02689,-0.0145 0.85945,0.2929 0.94246,0.96016 0.27468,2.20793 -1.31149,2.45054 0.85182,2.76086 15.37178,2.20508 10.71732,-0.41023 11.74513,-0.61376 11.31944,-2.24158 -0.42206,-1.61398 1.64325,-4.19012 5.04455,-6.29223 0.63742,-0.39395 2.85173,0.19101 4.92068,1.2999 4.25223,2.27906 5.64672,1.59678 5.16536,-2.52724 -0.32483,-2.78287 -0.39267,-2.80892 -6.63757,-2.54866 -7.34856,0.30631 -9.19061,-0.77267 -9.19061,-5.38332 0,-4.60822 1.84276,-5.6887 9.19061,-5.38882 4.68309,0.19113 6.30939,-0.082 6.30939,-1.0598 0,-0.95313 -1.93515,-1.34966 -7,-1.43434 -6.4564,-0.10795 -7.02482,-0.29177 -7.31955,-2.36704 -0.23129,-1.62851 -0.99088,-2.25 -2.75,-2.25 -2.10305,0 -2.43045,0.46353 -2.43045,3.44098 0,1.89254 0.45,3.7191 1,4.05902 1.45129,0.89694 1.27588,17.82412 -0.2,19.3 -1.25292,1.25292 -16.28941,1.7169 -19.21821,0.59301 -0.86999,-0.33384 -1.58179,-1.4107 -1.58179,-2.39301 0,-0.98231 -0.5625,-1.9854 -1.25,-2.22907 -0.6875,-0.24368 -9.68521,-0.55214 -19.99492,-0.68546 l -18.74491,-0.24241 -0.98033,2.57847 c -0.91155,2.39755 -1.4206,2.57666 -7.25509,2.55267 l -6.27475,-0.0258 -1.75,-3.80181 c -2.00891,-4.36429 -2.34642,-14.15017 -0.55,-15.94659 0.83738,-0.83738 7.25874,-1.26846 21.25,-1.42656 l 20.05,-0.22656 -18.94644,-0.29623 c -15.93957,-0.24921 -19.23642,-0.55866 -20.77363,-1.94981 -1.11718,-1.01103 -2.18179,-1.29361 -2.73974,-0.72721 -0.5019,0.5095 -1.01923,6.05754 -1.14961,12.32898 l -0.23707,11.4026 2.89208,2.48766 c 2.81734,2.42338 3.17715,2.47124 13.92325,1.85195 6.06714,-0.34965 14.85616,-0.72828 19.53116,-0.84141 z m 73,-0.80341 c 0,-0.55 -1.7632,-1 -3.91821,-1 -2.15502,0 -4.63002,-0.27314 -5.5,-0.60699 -1.03799,-0.39831 -1.58179,-0.0545 -1.58179,1 0,1.2812 1.11503,1.60699 5.5,1.60699 3.025,0 5.5,-0.45 5.5,-1 z m -3.91821,-27 c 2.15501,0 3.91821,-0.45 3.91821,-1 0,-0.55 -2.475,-1 -5.5,-1 -4.38497,0 -5.5,0.32579 -5.5,1.60699 0,1.05452 0.5438,1.39831 1.58179,1 0.86998,-0.33385 3.34498,-0.60699 5.5,-0.60699 z m -70.33179,-1.7455 c -5.3625,-0.17981 -14.1375,-0.17981 -19.5,0 -5.3625,0.17981 -0.975,0.32692 9.75,0.32692 10.725,0 15.1125,-0.14711 9.75,-0.32692 z m 99.0055,29.17641 c -8.94403,-4.85255 -8.80672,-24.25034 0.20465,-28.9103 9.07501,-4.69287 18.03985,2.50261 18.03985,14.47939 0,12.00475 -9.24219,19.31507 -18.2445,14.43091 z m -93.5555,-40.63091 c -0.66,-0.66 -1.2,-2.41186 -1.2,-3.89301 0,-1.53318 -0.68124,-2.95443 -1.58179,-3.3 -0.86998,-0.33385 -12.76284,-0.60699 -26.42857,-0.60699 -21.25465,0 -25.07397,-0.22718 -26.41821,-1.57143 -1.38737,-1.38737 -1.57143,-7.52814 -1.57143,-52.42857 0,-44.90043 0.18406,-51.0412 1.57143,-52.42857 1.40183,-1.40183 10.02814,-1.57143 79.92857,-1.57143 69.90043,0 78.52674,0.1696 79.92857,1.57143 1.38737,1.38737 1.57143,7.52814 1.57143,52.42857 0,44.90043 -0.18406,51.0412 -1.57143,52.42857 -1.35195,1.35196 -5.39083,1.57143 -28.91821,1.57143 -15.04073,0 -28.05859,0.27314 -28.92857,0.60699 -0.90054,0.34557 -1.58179,1.76682 -1.58179,3.3 0,4.89562 -0.89139,5.09301 -23,5.09301 -14.68889,0 -20.94434,-0.34434 -21.8,-1.2 z m 58.80163,-14.46516 c 33.38809,-0.61132 36.47721,-0.81368 38.16353,-2.5 1.72355,-1.72355 1.83484,-4.47338 1.83484,-45.33484 0,-41.23396 -0.0979,-43.59789 -1.87913,-45.37913 -1.77261,-1.77261 -4.93272,-1.92214 -55.75,-2.63799 -29.62898,-0.41737 -61.94646,-0.48368 -71.81662,-0.14734 -16.31156,0.55583 -18.13282,0.79856 -20,2.66551 -2.00918,2.00893 -2.05425,3.0055 -2.05425,45.42077 0,40.84231 0.10805,43.4862 1.85608,45.41843 1.02178,1.12946 3.49401,2.22514 5.5,2.43761 6.61467,0.70057 67.18467,0.73372 104.14555,0.057 z"
         id="path4127"
         inkscape:connector-curvature="0" />
      <path
         style="fill:#090909"
         d="m 529.80781,648.51955 c -3.35065,-1.34611 -4.23545,-4.88983 -4.23545,-16.96346 0,-12.09257 0.89251,-15.65283 4.23545,-16.89544 3.72703,-1.38538 5.08285,-0.14278 2.26377,2.07471 -2.41236,1.89756 -2.49922,2.37439 -2.49922,13.719 0,10.99241 0.1498,11.89383 2.31445,13.92742 l 2.31445,2.17431 53.65037,0 c 52.62691,0 53.67078,-0.0382 54.72073,-2 1.43712,-2.68528 3.21713,-2.54326 2.81955,0.22497 -0.66827,4.65306 -1.8755,4.74865 -59.31955,4.6969 -29.97358,-0.027 -55.00757,-0.45343 -56.26455,-0.95841 z m 132.74148,-5.98816 c -3.55311,-3.80361 -5.06966,-10.4037 -3.77998,-16.4506 1.00732,-4.72302 5.50669,-10.5247 8.1622,-10.5247 1.24993,0 1.61428,1.52734 1.84879,7.75 0.16224,4.30529 0.73654,7.75 1.29206,7.75 0.55552,0 1.12982,-3.44471 1.29206,-7.75 0.23451,-6.22266 0.59886,-7.75 1.84879,-7.75 2.65551,0 7.15488,5.80168 8.1622,10.5247 1.28968,6.0469 -0.22687,12.64699 -3.77998,16.4506 -2.369,2.53602 -3.58444,3.0247 -7.52307,3.0247 -3.93863,0 -5.15407,-0.48868 -7.52307,-3.0247 z m -110.97693,0.0247 c 0,-0.62857 6.5,-1 17.5,-1 11,0 17.5,0.37143 17.5,1 0,0.62857 -6.5,1 -17.5,1 -11,0 -17.5,-0.37143 -17.5,-1 z m 63.59828,0.15903 c -0.28586,-0.46254 0.84681,-1.85131 2.51704,-3.08617 2.67124,-1.97493 3.23828,-2.07255 4.71073,-0.81102 0.92067,0.78879 2.48997,1.72438 3.48733,2.0791 0.99736,0.35471 1.5333,1.09811 1.19099,1.652 -0.75014,1.21374 -11.16877,1.35908 -11.90609,0.16609 z m -81.1268,-3.88154 c -0.98223,-2.35079 -1.44779,-5.94358 -1.26342,-9.75 l 0.29194,-6.02749 38.5,0 38.5,0 0,9.5 0,9.5 -9.26043,0.28766 c -9.10814,0.28294 -9.2763,0.24593 -10.22525,-2.25 l -0.96482,-2.53766 -20.5495,0 -20.5495,0 -0.9505,2.5 c -0.85518,2.24928 -1.50321,2.5 -6.46183,2.5 -5.41619,0 -5.53818,-0.0643 -7.06669,-3.72251 z m 96.52852,-8.27749 0,-12 6,0 6,0 0,12 0,12 -6,0 -6,0 0,-12 z m -15.58667,0.63474 c -0.30936,-0.80619 -0.41642,-2.74131 -0.2379,-4.30027 0.31623,-2.76162 0.47877,-2.83447 6.32457,-2.83447 l 6,0 0,4 0,4 -5.7621,0.30026 c -4.34295,0.22632 -5.90062,-0.0607 -6.32457,-1.16552 z m -79.41333,-12.63474 c 0,-0.6484 12.83333,-1 36.5,-1 23.66667,0 36.5,0.3516 36.5,1 0,0.6484 -12.83333,1 -36.5,1 -23.66667,0 -36.5,-0.3516 -36.5,-1 z m 80,0 c 0,-0.55 2.475,-1 5.5,-1 3.025,0 5.5,0.45 5.5,1 0,0.55 -2.475,1 -5.5,1 -3.025,0 -5.5,-0.45 -5.5,-1 z m 27,-2 c -0.5887,-1.1 -0.69453,-2 -0.23518,-2 1.06323,0 3.23518,2.14833 3.23518,3.2 0,1.55216 -1.94304,0.77494 -3,-1.2 z m -69.5,-11.91684 c -1.27912,-0.49648 -2.18022,-2.00301 -2.5,-4.17972 l -0.5,-3.40344 -26.2163,-0.5 c -23.4288,-0.44684 -26.40595,-0.68987 -28,-2.28571 -1.66394,-1.66583 -1.7837,-5.13794 -1.7837,-51.71429 0,-46.5981 0.11912,-50.04769 1.78571,-51.71429 1.68354,-1.68353 6.21619,-1.78571 79.21429,-1.78571 72.9981,0 77.53075,0.10218 79.21429,1.78571 1.66659,1.6666 1.78571,5.11619 1.78571,51.71429 0,46.57856 -0.11969,50.04839 -1.78391,51.71429 -1.60471,1.60633 -4.66855,1.83594 -30.5,2.28571 l -28.71609,0.5 -0.31711,3.30027 c -0.23476,2.44331 -0.96573,3.54687 -2.8151,4.25 -2.96221,1.12623 -35.97892,1.15416 -38.86779,0.0329 z m 95.04545,-16.53771 2.45455,-2.45454 0,-43.59091 0,-43.59091 -2.45455,-2.45455 -2.45454,-2.45454 -71.731,0 -71.73101,0 -2.31445,2.17431 -2.31445,2.17432 0,44.01123 c 0,43.81106 0.01,44.02176 2.17431,46.32569 l 2.17432,2.31445 71.87114,0 71.87114,0 2.45454,-2.45455 z"
         id="path4125"
         inkscape:connector-curvature="0" />
    </g>
  </g>
</svg>
